<?xml version="1.0" standalone="no"?>
<!DOCTYPE svg PUBLIC "-//W3C//DTD SVG 20010904//EN"
 "http://www.w3.org/TR/2001/REC-SVG-20010904/DTD/svg10.dtd">
<svg version="1.0" xmlns="http://www.w3.org/2000/svg"
 width="450.000000pt" height="450.000000pt" viewBox="0 0 450.000000 450.000000"
 preserveAspectRatio="xMidYMid meet">
<metadata>
Created by potrace 1.11, written by Peter Selinger 2001-2013
</metadata>
<g transform="translate(0.000000,450.000000) scale(0.100000,-0.100000)"
fill="#000000" stroke="none">
<path d="M533 3960 c-100 -3 -185 -8 -188 -12 -20 -20 -23 -146 -20 -758 4
-660 7 -815 25 -1085 10 -159 10 -144 13 -858 2 -487 4 -530 20 -541 9 -7 15
-15 13 -17 -6 -5 312 -2 794 7 416 8 464 8 1525 6 797 -1 1027 2 1044 12 6 4
26 6 44 5 17 -2 57 2 87 9 l55 12 0 213 c0 180 8 697 16 1105 1 62 5 108 8
103 3 -5 6 46 7 112 0 128 8 327 24 662 12 230 15 815 6 872 l-7 38 -67 0
c-37 1 -220 4 -407 8 -187 4 -433 9 -546 11 -130 3 -215 9 -229 16 -11 6 -33
9 -48 6 -15 -3 -88 -2 -162 4 -74 5 -184 12 -245 14 -60 3 -159 7 -220 10
-918 43 -1278 53 -1542 46z"/>
</g>
</svg>
